<?xml version="1.0" encoding="UTF-8" standalone="no"?>
<!-- Created with Inkscape (http://www.inkscape.org/) -->

<svg
   width="1024.001"
   height="512.00049"
   viewBox="0 0 270.93359 135.4668"
   version="1.1"
   id="svg1"
   inkscape:export-filename="logo.svg"
   inkscape:export-xdpi="96"
   inkscape:export-ydpi="96"
   inkscape:version="1.3.2 (091e20e, 2023-11-25, custom)"
   sodipodi:docname="Curator.svg"
   xmlns:inkscape="http://www.inkscape.org/namespaces/inkscape"
   xmlns:sodipodi="http://sodipodi.sourceforge.net/DTD/sodipodi-0.dtd"
   xmlns="http://www.w3.org/2000/svg"
   xmlns:svg="http://www.w3.org/2000/svg">
  <sodipodi:namedview
     id="namedview1"
     pagecolor="#000000"
     bordercolor="#000000"
     borderopacity="0.50196078"
     inkscape:showpageshadow="2"
     inkscape:pageopacity="0.0"
     inkscape:pagecheckerboard="true"
     inkscape:deskcolor="#656565"
     inkscape:document-units="px"
     labelstyle="default"
     inkscape:export-bgcolor="#65656500"
     showgrid="true"
     inkscape:zoom="0.76442109"
     inkscape:cx="546.16494"
     inkscape:cy="11.119526"
     inkscape:window-width="2560"
     inkscape:window-height="1377"
     inkscape:window-x="-8"
     inkscape:window-y="32"
     inkscape:window-maximized="1"
     inkscape:current-layer="layer1">
    <inkscape:grid
       id="grid5"
       units="px"
       originx="0"
       originy="0"
       spacingx="4.2333334"
       spacingy="4.2333334"
       empcolor="#0099e5"
       empopacity="0.30196078"
       color="#0099e5"
       opacity="0.14901961"
       empspacing="4"
       dotted="false"
       gridanglex="30"
       gridanglez="30"
       visible="true" />
  </sodipodi:namedview>
  <defs
     id="defs1" />
  <g
     inkscape:label="Layer 1"
     inkscape:groupmode="layer"
     id="layer1">
    <path
       d="m 40.439049,30.942872 q 4.150973,0 7.783076,1.630739 3.706226,1.630742 6.37471,4.595722 l -5.040467,5.04047 q -3.261482,-4.447473 -9.117319,-4.447473 -5.188718,0 -8.4502,3.557977 -3.26148,3.55798 -3.26148,8.894945 0,5.336969 3.26148,8.894947 3.261482,3.557977 8.4502,3.557977 5.855837,0 9.117319,-4.447473 l 5.040467,5.040468 q -2.668484,2.964982 -6.37471,4.595723 -3.632103,1.63074 -7.783076,1.63074 -7.931327,0 -13.638917,-5.633465 -5.633464,-5.70759 -5.633464,-13.638917 0,-7.931326 5.633464,-13.564791 5.70759,-5.707589 13.638917,-5.707589 z m 18.605198,0.741246 h 7.412456 v 18.382887 q 0,6.52296 2.890857,9.784439 2.890858,3.187354 6.893582,3.187354 5.411092,0 8.227826,-3.261478 2.816734,-3.335606 2.816734,-9.710315 V 31.684118 h 6.671207 v 20.532498 q 0,7.33833 -4.818096,12.304673 -4.74397,4.966345 -12.897671,4.966345 -1.260116,0 -2.371983,-0.07413 -1.111869,-0.07412 -2.964983,-0.518871 -1.77899,-0.370625 -3.335604,-1.037747 -1.48249,-0.66712 -3.11323,-1.927237 Q 62.8246,64.595403 61.638608,62.816415 60.526739,61.037426 59.785494,58.294819 59.044247,55.55221 59.044247,52.216607 Z m 61.597423,-0.815372 v 8.524323 q -5.26285,0 -8.59844,2.964983 -3.26147,2.964982 -3.26147,7.783077 V 68.672265 H 101.3693 V 50.141129 q 0,-8.894945 5.26284,-14.083664 5.33696,-5.188719 14.00953,-5.188719 z m 22.23748,6.745333 q -5.18872,0 -8.52432,3.632105 -3.3356,3.632103 -3.3356,8.969068 0,5.336969 3.3356,8.969071 3.3356,3.632102 8.52432,3.632102 5.18872,0 8.67258,-3.632102 3.48386,-3.632102 3.48386,-8.894946 0,-5.336967 -3.48386,-8.96907 -3.48386,-3.706228 -8.67258,-3.706228 z m 0,-6.671207 q 3.70624,0 7.04184,1.185993 3.40971,1.111868 6.15235,3.335605 2.81671,2.223736 4.44745,6.078213 1.63075,3.780351 1.63075,8.672569 v 18.531137 h -7.41246 v -4.743973 q -0.14825,0.222375 -0.59299,0.667122 -0.37063,0.370623 -1.4825,1.334241 -1.11186,0.889496 -2.44611,1.630742 -1.33423,0.741246 -3.40972,1.334242 -2.00137,0.592996 -4.15098,0.592996 0,0 -0.0741,0 -8.59843,0 -13.93541,-5.633466 -5.26284,-5.70759 -5.26284,-13.787164 0,-3.557979 1.18599,-6.893582 1.18599,-3.409731 3.48385,-6.152338 2.29786,-2.816733 6.07822,-4.447472 3.85448,-1.704865 8.59845,-1.704865 0.0741,0 0.14825,0 z m 23.94221,-14.009539 h 7.41245 v 14.824908 h 10.08094 v 6.300587 h -10.08094 v 12.230549 q 0,5.262844 3.26148,8.524323 3.33559,3.187355 8.59844,3.187355 v 6.819458 q -8.00544,0 -13.63893,-5.262842 -5.63344,-5.336968 -5.63344,-13.268294 z m 46.84665,24.386974 q -3.18734,-3.557977 -8.37607,-3.557977 -5.18871,0 -8.45019,3.557977 -3.26148,3.55798 -3.26148,8.894945 0,5.336969 3.26148,8.894947 3.26148,3.557977 8.45019,3.557977 5.18873,0 8.37607,-3.557977 3.18737,-3.557978 3.18737,-8.894947 0,-5.336965 -3.18737,-8.894945 z m -22.01499,-4.669846 q 5.70762,-5.707589 13.63892,-5.707589 7.93135,0 13.56479,5.707589 5.7076,5.633465 5.7076,13.564791 0,7.931327 -5.7076,13.638917 -5.63344,5.633465 -13.56479,5.633465 -7.9313,0 -13.63892,-5.633465 -5.63343,-5.70759 -5.63343,-13.638917 0,-7.931326 5.63343,-13.564791 z m 58.11366,-5.781715 v 8.524323 q -5.26283,0 -8.59844,2.964983 -3.26148,2.964982 -3.26148,7.783077 V 68.672265 H 230.4943 V 50.141129 q 0,-8.894945 5.26284,-14.083664 5.33696,-5.188719 14.00954,-5.188719 z"
       id="text1"
       style="font-size:61.2349px;font-family:Astonpoliz;-inkscape-font-specification:Astonpoliz;letter-spacing:0px;fill:#ffffff;stroke-width:1.05833"
       aria-label="curator" />
    <g
       id="g5"
       transform="translate(-1.2740173e-4,-3.7041718)"
       style="fill:#ffffff">
      <rect
         style="fill:#ffffff;stroke:none;stroke-width:1.05833"
         id="rect1"
         width="33.866661"
         height="33.866661"
         x="21.166796"
         y="88.370842" />
      <path
         sodipodi:type="star"
         style="fill:#ffffff;stroke:none;stroke-width:0.608272"
         id="path2"
         inkscape:flatsided="false"
         sodipodi:sides="3"
         sodipodi:cx="66.693169"
         sodipodi:cy="145.1953"
         sodipodi:r1="12.976508"
         sodipodi:r2="6.4882531"
         sodipodi:arg1="-1.5707963"
         sodipodi:arg2="-0.52359878"
         inkscape:rounded="0"
         inkscape:randomized="0"
         d="m 66.693169,132.21879 5.618992,9.73238 5.618993,9.73238 -11.237985,0 -11.237986,0 5.618994,-9.73238 z"
         inkscape:transform-center-y="-3.2428777"
         transform="matrix(1.7398956,0,0,1.7398956,-11.828274,-141.67604)" />
      <ellipse
         style="fill:#ffffff;stroke:none;stroke-width:1.05833"
         id="path3"
         cx="169.83151"
         cy="105.30416"
         rx="16.443218"
         ry="16.933323" />
      <path
         id="rect3"
         style="fill:#ffffff;stroke:none;stroke-width:1.05833"
         d="m 220.34093,88.370842 -4.4417,4.441698 12.49254,12.49164 -12.49254,12.49253 4.4417,4.44079 12.49254,-12.49162 12.49162,12.49164 4.4417,-4.44172 -12.49164,-12.49164 12.49164,-12.49162 -4.4417,-4.441698 -12.49162,12.491638 z" />
    </g>
    <path
       style="color:#000000;fill:#ffffff;-inkscape-stroke:none"
       d="M 0,0 V 135.4668 H 270.93359 V 0 Z M 8.4667969,8.4667969 H 262.4668 V 127 H 8.4667969 Z"
       id="rect4" />
  </g>
</svg>
